<svg width="49" height="49" viewBox="0 0 49 49" fill="none" xmlns="http://www.w3.org/2000/svg">
<path d="M7.71293 37.4277L0.602934 44.6177C0.413148 44.8033 0.262198 45.0248 0.158882 45.2693C0.0555663 45.5138 0.00195147 45.7764 0.00116291 46.0418C0.000374345 46.3072 0.0524278 46.5702 0.154289 46.8153C0.25615 47.0604 0.405782 47.2828 0.594461 47.4695C0.783141 47.6561 1.00709 47.8034 1.25327 47.9027C1.49944 48.0019 1.76291 48.0512 2.02831 48.0476C2.29372 48.044 2.55575 47.9876 2.79913 47.8817C3.04252 47.7758 3.26239 47.6225 3.44593 47.4307L10.5559 40.2407C10.7457 40.0552 10.8967 39.8337 11 39.5892C11.1033 39.3447 11.1569 39.0821 11.1577 38.8166C11.1585 38.5512 11.1064 38.2883 11.0046 38.0432C10.9027 37.7981 10.7531 37.5757 10.5644 37.389C10.3757 37.2023 10.1518 37.0551 9.9056 36.9558C9.65943 36.8565 9.39596 36.8073 9.13056 36.8109C8.86515 36.8145 8.60312 36.8709 8.35973 36.9768C8.11635 37.0827 7.89647 37.236 7.71293 37.4277ZM38.8339 11.1337C39.3603 11.1339 39.8654 10.9266 40.2399 10.5567L47.4299 3.44673C47.8072 3.07384 48.0209 2.56635 48.024 2.0359C48.0271 1.50545 47.8193 0.995502 47.4464 0.618231C47.0735 0.240961 46.566 0.0272743 46.0356 0.0241799C45.5052 0.0210856 44.9952 0.228837 44.6179 0.601731L37.4279 7.71173C37.146 7.99053 36.9534 8.34681 36.8744 8.73534C36.7954 9.12386 36.8337 9.52709 36.9844 9.89382C37.1351 10.2605 37.3913 10.5742 37.7206 10.795C38.05 11.0157 38.4375 11.1337 38.8339 11.1337ZM40.3239 37.4357C39.9504 37.0591 39.4425 36.8463 38.9121 36.8442C38.3816 36.842 37.872 37.0507 37.4954 37.4242C37.1188 37.7978 36.906 38.3057 36.9039 38.8361C36.9017 39.3665 37.1104 39.8761 37.4839 40.2527L44.6039 47.4327C44.7889 47.6192 45.0088 47.7674 45.251 47.8689C45.4933 47.9704 45.7532 48.0232 46.0158 48.0243C46.2785 48.0254 46.5387 47.9747 46.7818 47.8751C47.0249 47.7756 47.246 47.6292 47.4324 47.4442C47.6189 47.2593 47.7671 47.0394 47.8686 46.7971C47.9701 46.5549 48.0229 46.295 48.024 46.0324C48.0251 45.7697 47.9744 45.5094 47.8749 45.2664C47.7753 45.0233 47.6289 44.8022 47.4439 44.6157L40.3239 37.4357ZM7.79593 10.5637C8.17462 10.9268 8.68079 11.1265 9.20534 11.1198C9.72989 11.1132 10.2308 10.9007 10.6002 10.5282C10.9696 10.1557 11.1778 9.65296 11.18 9.12837C11.1822 8.60378 10.9782 8.09932 10.6119 7.72373L3.43193 0.603731C3.24659 0.413656 3.02526 0.262383 2.78085 0.158732C2.53644 0.0550818 2.27384 0.00112808 2.00837 1.75015e-05C1.74289 -0.00109308 1.47985 0.0506617 1.23458 0.152264C0.989309 0.253866 0.766723 0.403282 0.579798 0.5918C0.392874 0.780318 0.245352 1.00416 0.145835 1.25029C0.0463177 1.49641 -0.00320296 1.75988 0.000160535 2.02534C0.00352403 2.2908 0.0597043 2.55293 0.165425 2.79645C0.271147 3.03997 0.424293 3.26001 0.615934 3.44373L7.79593 10.5637ZM24.0239 10.0237C16.6129 10.0237 11.0239 15.1837 11.0239 22.0237C11.0239 22.5542 11.2346 23.0629 11.6097 23.4379C11.9848 23.813 12.4935 24.0237 13.0239 24.0237C13.5544 24.0237 14.0631 23.813 14.4381 23.4379C14.8132 23.0629 15.0239 22.5542 15.0239 22.0237C14.9979 20.6389 15.3583 19.2742 16.0649 18.0829C16.7715 16.8916 17.7962 15.9209 19.0239 15.2797V46.0247C19.0239 46.5552 19.2346 47.0639 19.6097 47.4389C19.9848 47.814 20.4935 48.0247 21.0239 48.0247C21.5544 48.0247 22.0631 47.814 22.4381 47.4389C22.8132 47.0639 23.0239 46.5552 23.0239 46.0247V31.0237H25.0239V46.0237C25.0239 46.5542 25.2346 47.0629 25.6097 47.4379C25.9848 47.813 26.4935 48.0237 27.0239 48.0237C27.5544 48.0237 28.0631 47.813 28.4381 47.4379C28.8132 47.0629 29.0239 46.5542 29.0239 46.0237V15.2797C30.2517 15.9209 31.2764 16.8916 31.9829 18.0829C32.6895 19.2742 33.05 20.6389 33.0239 22.0237C33.0239 22.5542 33.2346 23.0629 33.6097 23.4379C33.9848 23.813 34.4935 24.0237 35.0239 24.0237C35.5544 24.0237 36.0631 23.813 36.4381 23.4379C36.8132 23.0629 37.0239 22.5542 37.0239 22.0237C37.0239 15.1817 31.4349 10.0237 24.0239 10.0237Z" fill="#984089"/>
<path d="M24.0234 8.02344C26.2326 8.02344 28.0234 6.23258 28.0234 4.02344C28.0234 1.8143 26.2326 0.0234375 24.0234 0.0234375C21.8143 0.0234375 20.0234 1.8143 20.0234 4.02344C20.0234 6.23258 21.8143 8.02344 24.0234 8.02344Z" fill="#984089"/>
</svg>
