<?xml version="1.0" encoding="UTF-8"?>
<!DOCTYPE svg PUBLIC "-//W3C//DTD SVG 1.1//EN" "http://www.w3.org/Graphics/SVG/1.1/DTD/svg11.dtd">
<svg xmlns="http://www.w3.org/2000/svg" version="1.1" width="512px" height="512px" style="shape-rendering:geometricPrecision; text-rendering:geometricPrecision; image-rendering:optimizeQuality; fill-rule:evenodd; clip-rule:evenodd" xmlns:xlink="http://www.w3.org/1999/xlink">
<g><path style="opacity:0.997" fill="#f1f1f1" d="M 363.5,127.5 C 370.651,155.023 368.317,181.69 356.5,207.5C 340.839,239.147 315.839,259.48 281.5,268.5C 274.749,279 268.249,289.667 262,300.5C 257.667,304.5 253.333,304.5 249,300.5C 242.751,289.667 236.251,279 229.5,268.5C 195.219,259.55 170.219,239.217 154.5,207.5C 142.66,181.717 140.326,155.051 147.5,127.5C 160.112,88.388 186.112,62.888 225.5,51C 274.975,40.1554 315.475,54.3221 347,93.5C 354.372,103.911 359.872,115.244 363.5,127.5 Z"/></g>
<g><path style="opacity:1" fill="#5c5c5c" d="M 212.5,111.5 C 215.271,111.421 217.937,111.921 220.5,113C 232.014,124.681 243.681,136.181 255.5,147.5C 267.319,136.181 278.986,124.681 290.5,113C 301.019,110.186 304.853,114.019 302,124.5C 290.319,136.014 278.819,147.681 267.5,159.5C 278.819,171.319 290.319,182.986 302,194.5C 305.129,201.575 302.963,205.909 295.5,207.5C 292.852,207.033 290.519,205.866 288.5,204C 277.653,192.986 266.653,182.152 255.5,171.5C 243.681,182.819 232.014,194.319 220.5,206C 213.441,208.968 209.108,206.635 207.5,199C 207.625,197.373 208.125,195.873 209,194.5C 220.681,182.986 232.181,171.319 243.5,159.5C 232.514,148.014 221.348,136.681 210,125.5C 206.151,119.915 206.985,115.248 212.5,111.5 Z"/></g>
<g><path style="opacity:0.985" fill="#8c8c8c" d="M 111.5,127.5 C 111.5,154.167 111.5,180.833 111.5,207.5C 98.3631,250.243 85.0297,292.91 71.5,335.5C 55.5,335.5 39.5,335.5 23.5,335.5C 52.2645,265.857 81.5979,196.524 111.5,127.5 Z"/></g>
<g><path style="opacity:1" fill="#bfbfbf" d="M 111.5,127.5 C 123.5,127.5 135.5,127.5 147.5,127.5C 140.326,155.051 142.66,181.717 154.5,207.5C 140.167,207.5 125.833,207.5 111.5,207.5C 111.5,180.833 111.5,154.167 111.5,127.5 Z"/></g>
<g><path style="opacity:1" fill="#bfbfbf" d="M 363.5,127.5 C 375.5,127.5 387.5,127.5 399.5,127.5C 399.5,154.167 399.5,180.833 399.5,207.5C 385.167,207.5 370.833,207.5 356.5,207.5C 368.317,181.69 370.651,155.023 363.5,127.5 Z"/></g>
<g><path style="opacity:0.984" fill="#8c8c8c" d="M 399.5,127.5 C 429.402,196.524 458.735,265.857 487.5,335.5C 471.5,335.5 455.5,335.5 439.5,335.5C 426.363,292.757 413.03,250.09 399.5,207.5C 399.5,180.833 399.5,154.167 399.5,127.5 Z"/></g>
<g><path style="opacity:1" fill="#595959" d="M 111.5,207.5 C 125.833,207.5 140.167,207.5 154.5,207.5C 170.219,239.217 195.219,259.55 229.5,268.5C 236.251,279 242.751,289.667 249,300.5C 253.333,304.5 257.667,304.5 262,300.5C 268.249,289.667 274.749,279 281.5,268.5C 315.839,259.48 340.839,239.147 356.5,207.5C 370.833,207.5 385.167,207.5 399.5,207.5C 413.03,250.09 426.363,292.757 439.5,335.5C 394.165,335.333 348.832,335.5 303.5,336C 298.167,346.333 292.833,356.667 287.5,367C 266.167,367.667 244.833,367.667 223.5,367C 218.167,356.667 212.833,346.333 207.5,336C 162.168,335.5 116.835,335.333 71.5,335.5C 85.0297,292.91 98.3631,250.243 111.5,207.5 Z"/></g>
<g><path style="opacity:1" fill="#f1f1f1" d="M 23.5,335.5 C 39.5,335.5 55.5,335.5 71.5,335.5C 116.835,335.333 162.168,335.5 207.5,336C 212.833,346.333 218.167,356.667 223.5,367C 244.833,367.667 266.167,367.667 287.5,367C 292.833,356.667 298.167,346.333 303.5,336C 348.832,335.5 394.165,335.333 439.5,335.5C 455.5,335.5 471.5,335.5 487.5,335.5C 487.667,376.835 487.5,418.168 487,459.5C 486.626,460.416 486.126,461.25 485.5,462C 408.914,463.164 332.248,463.664 255.5,463.5C 178.752,463.664 102.086,463.164 25.5,462C 24.8742,461.25 24.3742,460.416 24,459.5C 23.5,418.168 23.3333,376.835 23.5,335.5 Z"/></g>
<g><path style="opacity:1" fill="#bfbfbf" d="M 388.5,391.5 C 408.836,391.333 429.169,391.5 449.5,392C 455.462,394.405 456.962,398.571 454,404.5C 452.829,405.893 451.329,406.727 449.5,407C 429.167,407.667 408.833,407.667 388.5,407C 381.889,401.798 381.889,396.631 388.5,391.5 Z"/></g>
<g><path style="opacity:1" fill="#bfbfbf" d="M 388.5,423.5 C 408.836,423.333 429.169,423.5 449.5,424C 455.462,426.405 456.962,430.571 454,436.5C 452.829,437.893 451.329,438.727 449.5,439C 429.167,439.667 408.833,439.667 388.5,439C 381.889,433.798 381.889,428.631 388.5,423.5 Z"/></g>
</svg>
