<svg width="48" height="43" viewBox="0 0 48 43" fill="none" xmlns="http://www.w3.org/2000/svg">
<g clip-path="url(#clip0_6019_52843)">
<path d="M47.5447 20.3892L40.5967 13.4422C40.3056 13.1511 39.9109 12.9876 39.4992 12.9876C39.0876 12.9876 38.6928 13.1511 38.4017 13.4422C38.1106 13.7333 37.9471 14.1281 37.9471 14.5397C37.9471 14.9514 38.1106 15.3461 38.4017 15.6372L42.7517 19.9872H29.4997C29.1019 19.9872 28.7204 20.1452 28.4391 20.4265C28.1577 20.7079 27.9997 21.0894 27.9997 21.4872C27.9997 21.885 28.1577 22.2666 28.4391 22.5479C28.7204 22.8292 29.1019 22.9872 29.4997 22.9872H42.7517L38.4017 27.3372C38.1106 27.6283 37.9471 28.0231 37.9471 28.4347C37.9471 28.8463 38.1106 29.2411 38.4017 29.5322C38.6928 29.8233 39.0876 29.9868 39.4992 29.9868C39.9109 29.9868 40.3056 29.8233 40.5967 29.5322L47.5447 22.5852C47.6891 22.4412 47.8036 22.2702 47.8818 22.0818C47.9599 21.8935 48.0002 21.6916 48.0002 21.4877C48.0002 21.2838 47.9599 21.0819 47.8818 20.8936C47.8036 20.7053 47.6891 20.5342 47.5447 20.3902M29.7977 2.74921C29.5503 1.99773 29.0856 1.33649 28.4624 0.849117C27.8392 0.361741 27.0855 0.070121 26.2965 0.0111351C25.5076 -0.0478507 24.7189 0.128448 24.0301 0.517734C23.3413 0.907021 22.7835 1.49181 22.4271 2.19815C22.0707 2.90449 21.9318 3.70064 22.0279 4.48594C22.124 5.27123 22.4509 6.01039 22.9671 6.60992C23.4833 7.20946 24.1657 7.64246 24.928 7.85415C25.6903 8.06584 26.4983 8.04672 27.2497 7.79921C28.2572 7.46735 29.0916 6.74889 29.5695 5.80186C30.0473 4.85482 30.1294 3.75677 29.7977 2.74921ZM20.7347 23.4992L24.6657 15.7102C25.2456 14.5612 25.3453 13.2288 24.9428 12.0063C24.5404 10.7837 23.6688 9.77111 22.5197 9.19121L19.9637 7.90121C19.8276 7.83453 19.6843 7.78353 19.5367 7.74921C16.2308 6.30106 12.497 6.16805 9.09637 7.37728C5.69574 8.58651 2.88419 11.047 1.23471 14.2572C0.998177 14.7439 0.961792 15.3038 1.13336 15.817C1.30493 16.3301 1.67079 16.7556 2.15245 17.0021C2.6341 17.2486 3.1932 17.2966 3.70978 17.1356C4.22637 16.9747 4.65931 16.6177 4.91571 16.1412C5.85866 14.3074 7.34288 12.808 9.16702 11.8465C10.9912 10.885 13.0669 10.5078 15.1127 10.7662L0.22771 39.9522C0.103217 40.1964 0.02804 40.4627 0.00647194 40.736C-0.0150961 41.0092 0.0173669 41.284 0.102008 41.5447C0.186648 41.8054 0.321809 42.0469 0.499772 42.2554C0.677736 42.4638 0.895017 42.6352 1.13921 42.7597C1.3834 42.8842 1.64973 42.9594 1.92297 42.9809C2.19622 43.0025 2.47104 42.9701 2.73174 42.8854C2.99244 42.8008 3.23391 42.6656 3.44238 42.4876C3.65085 42.3097 3.82222 42.0924 3.94671 41.8482L12.9887 24.1192L17.4637 26.3792C19.7914 27.6477 21.5295 29.7776 22.3056 32.3123C23.0817 34.847 22.8341 37.5849 21.6157 39.9392C21.4841 40.1829 21.4022 40.4503 21.375 40.7259C21.3477 41.0016 21.3756 41.2799 21.457 41.5446C21.5384 41.8093 21.6717 42.0552 21.8491 42.2679C22.0265 42.4806 22.2444 42.6559 22.4902 42.7835C22.736 42.9111 23.0048 42.9885 23.2808 43.0112C23.5569 43.0339 23.8346 43.0014 24.098 42.9157C24.3614 42.8299 24.605 42.6926 24.8148 42.5118C25.0245 42.3309 25.1962 42.1101 25.3197 41.8622C26.9201 38.7675 27.3374 35.1955 26.4934 31.8153C25.6494 28.435 23.602 25.4784 20.7347 23.4992Z" fill="#984089"/>
</g>
<defs>
<clipPath id="clip0_6019_52843">
<rect width="48" height="42.988" fill="white"/>
</clipPath>
</defs>
</svg>
