<svg width="49" height="49" viewBox="0 0 49 49" fill="none" xmlns="http://www.w3.org/2000/svg">
<path d="M9.7882 14.2266C4.20849 14.2266 0 18.3655 0 23.9074C0 24.4545 0.279981 24.96 0.73438 25.2335C1.18879 25.5071 1.74872 25.5071 2.20314 25.2335C2.65767 24.96 2.93752 24.4545 2.93752 23.9074C2.92069 21.6657 4.03619 19.5798 5.87441 18.4169V40.2412C5.87441 40.7883 6.15439 41.2938 6.60879 41.5674C7.06332 41.8409 7.62314 41.8409 8.07755 41.5674C8.53208 41.2938 8.81209 40.7884 8.81209 40.2412V29.5224H10.7704V40.2412C10.7704 40.7883 11.0504 41.2938 11.5048 41.5674C11.9592 41.8409 12.5192 41.8409 12.9736 41.5674C13.428 41.2938 13.708 40.7884 13.708 40.2412V18.4214C15.5425 19.5853 16.6554 21.6688 16.6386 23.9078C16.6386 24.4549 16.9186 24.9604 17.373 25.2339C17.8275 25.5075 18.3873 25.5075 18.8419 25.2339C19.2963 24.9604 19.5763 24.4549 19.5763 23.9078C19.5763 18.3659 15.3678 14.227 9.78805 14.227L9.7882 14.2266Z" fill="#984089"/>
<path d="M13.7064 8.08336C13.7064 10.3386 11.9528 12.1667 9.78974 12.1667C7.62655 12.1667 5.87305 10.3385 5.87305 8.08336C5.87305 5.82812 7.62667 4 9.78974 4C11.9528 4 13.7064 5.82812 13.7064 8.08336Z" fill="#984089"/>
<path d="M37.2102 14.2267C31.6305 14.2267 27.422 18.3656 27.422 23.9075H27.4219C27.4219 24.4546 27.7019 24.9601 28.1564 25.2337C28.6108 25.5072 29.1706 25.5072 29.6252 25.2337C30.0796 24.9601 30.3596 24.4546 30.3596 23.9075C30.3524 22.7181 30.6639 21.55 31.259 20.5351C31.8542 19.5203 32.7093 18.6987 33.7281 18.1632L31.4689 30.4165C31.434 30.7072 31.5206 30.9994 31.7065 31.2188C31.8924 31.4383 32.1597 31.564 32.4406 31.564H33.2897V40.2412C33.2897 40.7882 33.5697 41.2937 34.0241 41.5673C34.4785 41.8409 35.0384 41.8409 35.4929 41.5673C35.9473 41.2938 36.2272 40.7883 36.2272 40.2412V31.564H38.1856V40.2412C38.1856 40.7882 38.4656 41.2937 38.9201 41.5673C39.3745 41.8409 39.9343 41.8409 40.3889 41.5673C40.8433 41.2938 41.1233 40.7883 41.1233 40.2412V31.564H41.9724C42.2533 31.564 42.5206 31.4383 42.7065 31.2188C42.8924 30.9994 42.9788 30.7072 42.9441 30.4165L40.684 18.1583V18.1585C41.7048 18.6933 42.562 19.5151 43.1587 20.5308C43.7554 21.5467 44.0677 22.7162 44.0605 23.9074C44.0605 24.4545 44.3405 24.96 44.795 25.2335C45.2494 25.5071 45.8092 25.5071 46.2638 25.2335C46.7182 24.96 46.9982 24.4545 46.9982 23.9074C46.9982 18.3655 42.7897 14.2266 37.21 14.2266L37.2102 14.2267Z" fill="#984089"/>
<path d="M41.1244 8.08336C41.1244 10.3386 39.3708 12.1667 37.2077 12.1667C35.0446 12.1667 33.291 10.3385 33.291 8.08336C33.291 5.82812 35.0446 4 37.2077 4C39.3709 4 41.1244 5.82812 41.1244 8.08336Z" fill="#984089"/>
</svg>
